<svg width="249" height="43" viewBox="0 0 249 43" fill="none" xmlns="http://www.w3.org/2000/svg">
<rect width="43" height="43" rx="9.83447" fill="white"/>
<path opacity="0.8" d="M12 16.7535C12 13.0237 15.0237 10 18.7535 10V10V29.3397C18.7535 33.0696 15.7299 36.0932 12 36.0932V36.0932V16.7535Z" fill="#141DEF" fill-opacity="0.77"/>
<path opacity="0.8" d="M18.4466 10C14.8862 10 12 12.8862 12 16.4466V16.4466L25.2001 16.4466C28.7604 16.4466 31.6467 13.5603 31.6467 10V10L18.4466 10Z" fill="#141DEF" fill-opacity="0.77"/>
<path opacity="0.8" d="M12 20.4373V20.4373C12 23.9977 14.8862 26.8839 18.4466 26.8839L19.3675 26.8839C22.9278 26.8839 25.8141 23.9977 25.8141 20.4373V20.4373L12 20.4373Z" fill="#141DEF" fill-opacity="0.77"/>
<path d="M55.6155 29V16.1496H58.7363V29H55.6155ZM57.0657 24.0801V21.4734H63.7112V24.0801H57.0657ZM57.0657 18.9033V16.1496H64.4639V18.9033H57.0657ZM69.093 29V26.3749H71.2592V18.7748H69.093V16.1496H76.5646V18.7748H74.38V26.3749H76.5646V29H69.093ZM81.9193 29V16.1496H84.7097L91.4469 25.3285L90.8411 25.2367C90.7799 24.8328 90.731 24.4473 90.6943 24.0801C90.6575 23.713 90.6208 23.352 90.5841 22.997C90.5596 22.6421 90.5352 22.2811 90.5107 21.9139C90.4984 21.5468 90.4862 21.149 90.474 20.7207C90.474 20.2923 90.474 19.8273 90.474 19.3255V16.1496H93.503V29H90.6759L83.6449 19.5274L84.5812 19.6559C84.6423 20.2434 84.6913 20.7452 84.728 21.1613C84.777 21.5651 84.8137 21.9262 84.8382 22.2444C84.8749 22.5626 84.8994 22.8502 84.9116 23.1072C84.9238 23.3642 84.93 23.6212 84.93 23.8782C84.9422 24.123 84.9483 24.3983 84.9483 24.7043V29H81.9193ZM103.373 29.1836C102.528 29.1836 101.763 29.0857 101.078 28.8899C100.405 28.6818 99.8053 28.3881 99.2791 28.0087C98.7528 27.6171 98.2816 27.1581 97.8655 26.6319L99.7564 24.484C100.368 25.304 100.98 25.8547 101.592 26.1362C102.216 26.4177 102.859 26.5584 103.52 26.5584C103.85 26.5584 104.15 26.5156 104.419 26.4299C104.688 26.3443 104.897 26.2219 105.043 26.0628C105.19 25.8914 105.264 25.6834 105.264 25.4386C105.264 25.255 105.215 25.0898 105.117 24.943C105.031 24.7961 104.909 24.6676 104.75 24.5574C104.591 24.4473 104.401 24.3494 104.181 24.2637C103.96 24.1658 103.728 24.0863 103.483 24.0251C103.238 23.9516 102.987 23.8904 102.73 23.8415C102.02 23.6824 101.402 23.4866 100.876 23.254C100.35 23.0215 99.9093 22.74 99.5544 22.4096C99.2117 22.0669 98.9547 21.6814 98.7834 21.2531C98.6121 20.8125 98.5264 20.3229 98.5264 19.7844C98.5264 19.2092 98.6549 18.683 98.9119 18.2057C99.1811 17.7162 99.5361 17.3 99.9766 16.9574C100.429 16.6025 100.95 16.3332 101.537 16.1496C102.124 15.9538 102.736 15.8559 103.373 15.8559C104.217 15.8559 104.939 15.9477 105.539 16.1313C106.151 16.3026 106.671 16.5535 107.099 16.8839C107.54 17.2144 107.913 17.6121 108.219 18.0772L106.292 19.9313C106.035 19.6131 105.753 19.35 105.447 19.1419C105.154 18.9339 104.835 18.7748 104.493 18.6646C104.162 18.5545 103.82 18.4994 103.465 18.4994C103.097 18.4994 102.779 18.5484 102.51 18.6463C102.253 18.7319 102.051 18.8604 101.904 19.0318C101.757 19.1909 101.684 19.3867 101.684 19.6192C101.684 19.8273 101.745 20.0047 101.867 20.1516C101.99 20.2985 102.155 20.4331 102.363 20.5555C102.571 20.6656 102.81 20.7635 103.079 20.8492C103.348 20.9226 103.63 20.9838 103.924 21.0328C104.597 21.1674 105.202 21.3449 105.741 21.5651C106.292 21.7854 106.763 22.0547 107.154 22.3729C107.558 22.6911 107.864 23.0705 108.072 23.5111C108.293 23.9394 108.403 24.4412 108.403 25.0164C108.403 25.9098 108.183 26.6686 107.742 27.2927C107.314 27.9047 106.72 28.3758 105.961 28.7063C105.215 29.0245 104.352 29.1836 103.373 29.1836ZM115.926 29V18.9033H112.107V16.1496H122.957V18.9033H119.046V29H115.926ZM127.551 29V16.1496H136.51V18.8115H130.58V26.3381H136.693V29H127.551ZM129.02 23.7313V21.198H135.683V23.7313H129.02ZM140.136 29L145.221 16.1496H147.864L152.913 29H149.755L147.332 22.483C147.234 22.226 147.136 21.9507 147.038 21.6569C146.94 21.3632 146.842 21.0634 146.745 20.7574C146.647 20.4392 146.549 20.1332 146.451 19.8395C146.365 19.5336 146.292 19.2521 146.231 18.9951L146.781 18.9767C146.708 19.2827 146.622 19.5825 146.524 19.8762C146.439 20.17 146.347 20.4637 146.249 20.7574C146.163 21.0389 146.065 21.3265 145.955 21.6202C145.845 21.9017 145.741 22.1954 145.643 22.5014L143.22 29H140.136ZM142.559 26.5401L143.532 24.1903H149.443L150.398 26.5401H142.559ZM156.902 29V16.1496H162.281C163.224 16.1496 164.086 16.3087 164.87 16.6269C165.653 16.9329 166.326 17.3735 166.889 17.9487C167.464 18.5239 167.905 19.2031 168.211 19.9864C168.517 20.7696 168.67 21.6325 168.67 22.5748C168.67 23.5172 168.517 24.3861 168.211 25.1816C167.905 25.9649 167.464 26.6441 166.889 27.2193C166.326 27.7823 165.653 28.2229 164.87 28.5411C164.086 28.847 163.224 29 162.281 29H156.902ZM160.023 26.8705L159.601 26.2463H162.19C162.704 26.2463 163.162 26.1607 163.566 25.9893C163.97 25.8058 164.313 25.5549 164.594 25.2367C164.888 24.9185 165.114 24.533 165.274 24.0801C165.433 23.6273 165.512 23.1255 165.512 22.5748C165.512 22.0241 165.433 21.5223 165.274 21.0695C165.114 20.6167 164.888 20.2312 164.594 19.913C164.313 19.5948 163.97 19.35 163.566 19.1786C163.162 18.9951 162.704 18.9033 162.19 18.9033H159.546L160.023 18.3158V26.8705ZM173.845 29.2019C173.344 29.2019 172.952 29.0612 172.67 28.7797C172.401 28.4982 172.267 28.0944 172.267 27.5681C172.267 27.0786 172.413 26.6808 172.707 26.3749C173.001 26.0689 173.38 25.9159 173.845 25.9159C174.347 25.9159 174.739 26.0628 175.02 26.3565C175.302 26.638 175.442 27.0418 175.442 27.5681C175.442 28.0454 175.296 28.437 175.002 28.743C174.708 29.049 174.323 29.2019 173.845 29.2019ZM178.579 29L183.664 16.1496H186.307L191.356 29H188.198L185.775 22.483C185.677 22.226 185.579 21.9507 185.481 21.6569C185.383 21.3632 185.285 21.0634 185.187 20.7574C185.089 20.4392 184.992 20.1332 184.894 19.8395C184.808 19.5336 184.735 19.2521 184.673 18.9951L185.224 18.9767C185.151 19.2827 185.065 19.5825 184.967 19.8762C184.881 20.17 184.79 20.4637 184.692 20.7574C184.606 21.0389 184.508 21.3265 184.398 21.6202C184.288 21.9017 184.184 22.1954 184.086 22.5014L181.663 29H178.579ZM181.002 26.5401L181.975 24.1903H187.886L188.841 26.5401H181.002ZM195.088 29V26.3749H197.255V18.7748H195.088V16.1496H202.56V18.7748H200.375V26.3749H202.56V29H195.088Z" fill="white"/>
</svg>
